<?xml version="1.0"?>
<svg xmlns="http://www.w3.org/2000/svg" version="1.1" width="450.83856201171875pt" height="128.63858032226562pt" viewBox="5.580708661417322 5.580708661417322 450.83857123307354 128.6385838215745" preserveAspectRatio="none" xmlns:xlink="http://www.w3.org/1999/xlink">
  <defs>
  </defs>
  <path d="M178.79998779296875,38.69999694824219 L188.09999084472656,38.69999694824219 " stroke="#6E6E6E" fill="none" stroke-width="0.75" stroke-opacity="1" />
  <path d="M193.79998779296875,38.69999694824219 L188.0999755859375,40.91999816894531 L188.0999755859375,36.47999954223633 L193.79998779296875,38.69999694824219 " stroke="none" fill="#6E6E6E" fill-rule="evenodd" stroke-width="0" fill-opacity="1" />
  <path d="M193.79998779296875,38.69999694824219 L188.0999755859375,40.91999816894531 L188.0999755859375,36.47999954223633 L193.79998779296875,38.69999694824219 " stroke="#6E6E6E" fill="none" stroke-width="0.75" stroke-opacity="1" />
  <path d="M89.39999389648438,38.69999694824219 L98.8106918334961,36.81786346435547 " stroke="#6E6E6E" fill="none" stroke-width="0.75" stroke-opacity="1" />
  <path d="M104.39999389648438,35.70000076293945 L99.24605560302734,38.9947509765625 L98.37530517578125,34.64097213745117 L104.39999389648438,35.70000076293945 " stroke="none" fill="#6E6E6E" fill-rule="evenodd" stroke-width="0" fill-opacity="1" />
  <path d="M104.39999389648438,35.70000076293945 L99.24605560302734,38.9947509765625 L98.37530517578125,34.64097213745117 L104.39999389648438,35.70000076293945 " stroke="#6E6E6E" fill="none" stroke-width="0.75" stroke-opacity="1" />
  <path d="M77.1954345703125,83.65351867675781 L101.29879760742188,46.48252487182617 " stroke="#6E6E6E" fill="none" stroke-width="0.75" stroke-opacity="1" />
  <path d="M104.39999389648438,41.69999694824219 L103.16145324707031,47.69035720825195 L99.43612670898438,45.27468490600586 L104.39999389648438,41.69999694824219 " stroke="none" fill="#6E6E6E" fill-rule="evenodd" stroke-width="0" fill-opacity="1" />
  <path d="M104.39999389648438,41.69999694824219 L103.16145324707031,47.69035720825195 L99.43612670898438,45.27468490600586 L104.39999389648438,41.69999694824219 " stroke="#6E6E6E" fill="none" stroke-width="0.75" stroke-opacity="1" />
  <path d="M357.5999755859375,38.69999694824219 L366.89996337890625,38.69999694824219 " stroke="#6E6E6E" fill="none" stroke-width="0.75" stroke-opacity="1" />
  <path d="M372.5999755859375,38.69999694824219 L366.89996337890625,40.91999816894531 L366.89996337890625,36.47999954223633 L372.5999755859375,38.69999694824219 " stroke="none" fill="#6E6E6E" fill-rule="evenodd" stroke-width="0" fill-opacity="1" />
  <path d="M372.5999755859375,38.69999694824219 L366.89996337890625,40.91999816894531 L366.89996337890625,36.47999954223633 L372.5999755859375,38.69999694824219 " stroke="#6E6E6E" fill="none" stroke-width="0.75" stroke-opacity="1" />
  <path d="M268.1999816894531,38.69999694824219 L277.5,38.69999694824219 " stroke="#6E6E6E" fill="none" stroke-width="0.75" stroke-opacity="1" />
  <path d="M283.1999816894531,38.69999694824219 L277.4999694824219,40.91999816894531 L277.4999694824219,36.47999954223633 L283.1999816894531,38.69999694824219 " stroke="none" fill="#6E6E6E" fill-rule="evenodd" stroke-width="0" fill-opacity="1" />
  <path d="M283.1999816894531,38.69999694824219 L277.4999694824219,40.91999816894531 L277.4999694824219,36.47999954223633 L283.1999816894531,38.69999694824219 " stroke="#6E6E6E" fill="none" stroke-width="0.75" stroke-opacity="1" />
  <path d="M112.9039306640625,15 L170.29605102539062,15 L170.29603576660156,15 C174.99261474609375,14.999992370605469 178.7999725341797,18.807327270507812 178.7999725341797,23.50393295288086 C178.7999725341797,23.503934860229492 178.7999725341797,23.503936767578125 178.7999725341797,23.503938674926758 L178.79998779296875,23.503936767578125 L178.79998779296875,53.89606475830078 L178.7999725341797,53.89605712890625 C178.7999725341797,58.5926513671875 174.99264526367188,62.399993896484375 170.29605102539062,62.39999771118164 L170.29605102539062,62.39999771118164 L112.9039306640625,62.39999771118164 L112.9039306640625,62.39999771118164 C108.20733642578125,62.39999771118164 104.39999389648438,58.59265899658203 104.39999389648438,53.89606475830078 L104.39999389648438,23.503936767578125 L104.39998626708984,23.50394058227539 C104.39998626708984,18.80734634399414 108.20732116699219,15.00000286102295 112.90391540527344,14.999999046325684 " stroke="none" fill="#F2E279" fill-rule="evenodd" stroke-width="0" fill-opacity="1" />
  <text x="40.29952621459961" y="36.154998779296875" dx="0" dy="0" font-family="Segoe UI" font-size="8.249999754130847pt" fill="#000000" style="text-anchor:start" transform="matrix(0.750000 0.000000 0.000000 0.750000 104.39999389648438 15)">Clip</text>
  <path d="M112.9039306640625,15 L170.29605102539062,15 L170.29603576660156,15 C174.99261474609375,14.999992370605469 178.7999725341797,18.807327270507812 178.7999725341797,23.50393295288086 C178.7999725341797,23.503934860229492 178.7999725341797,23.503936767578125 178.7999725341797,23.503938674926758 L178.79998779296875,23.503936767578125 L178.79998779296875,53.89606475830078 L178.7999725341797,53.89605712890625 C178.7999725341797,58.5926513671875 174.99264526367188,62.399993896484375 170.29605102539062,62.39999771118164 L170.29605102539062,62.39999771118164 L112.9039306640625,62.39999771118164 L112.9039306640625,62.39999771118164 C108.20733642578125,62.39999771118164 104.39999389648438,58.59265899658203 104.39999389648438,53.89606475830078 L104.39999389648438,23.503936767578125 L104.39998626708984,23.50394058227539 C104.39998626708984,18.80734634399414 108.20732116699219,15.00000286102295 112.90391540527344,14.999999046325684 " stroke="none" fill="none" stroke-width="0.75" stroke-opacity="0" />
  <path d="M268.199951171875,38.69999313354492 C268.199951171875,51.78913879394531 251.5449676513672,62.399993896484375 231,62.39999771118164 C210.4550018310547,62.400001525878906 193.79998779296875,51.78915786743164 193.7999725341797,38.70001220703125 L193.7999725341797,38.700016021728516 C193.79995727539062,25.610868453979492 210.4549560546875,15.000008583068848 230.99993896484375,15 C251.54493713378906,14.99998950958252 268.199951171875,25.61083221435547 268.199951171875,38.69999694824219 C268.199951171875,38.69999694824219 268.199951171875,38.69999694824219 268.199951171875,38.69999694824219 " stroke="none" fill="#83CC7C" fill-rule="evenodd" stroke-width="0" fill-opacity="1" />
  <text x="9.289527893066406" y="36.154998779296875" dx="0" dy="0" font-family="Segoe UI" font-size="8.249999754130847pt" fill="#000000" style="text-anchor:start" transform="matrix(0.750000 0.000000 0.000000 0.750000 193.79998779296875 15)">Rivers in Virginia</text>
  <path d="M268.199951171875,38.69999313354492 C268.199951171875,51.78913879394531 251.5449676513672,62.399993896484375 231,62.39999771118164 C210.4550018310547,62.400001525878906 193.79998779296875,51.78915786743164 193.7999725341797,38.70001220703125 L193.7999725341797,38.700016021728516 C193.79995727539062,25.610868453979492 210.4549560546875,15.000008583068848 230.99993896484375,15 C251.54493713378906,14.99998950958252 268.199951171875,25.61083221435547 268.199951171875,38.69999694824219 C268.199951171875,38.69999694824219 268.199951171875,38.69999694824219 268.199951171875,38.69999694824219 " stroke="none" fill="none" stroke-width="0.75" stroke-opacity="0" />
  <path d="M89.39998626708984,38.69999313354492 C89.39998626708984,51.78913879394531 72.74497985839844,62.399993896484375 52.20001220703125,62.39999771118164 C31.655027389526367,62.400001525878906 15.000014305114746,51.78915786743164 14.99999713897705,38.70001220703125 L14.999994277954102,38.700016021728516 C14.999977111816406,25.610868453979492 31.65497398376465,15.000008583068848 52.1999626159668,15 C72.74494934082031,14.99998950958252 89.39996337890625,25.61083221435547 89.39998626708984,38.69999694824219 C89.39998626708984,38.69999694824219 89.39998626708984,38.69999694824219 89.39998626708984,38.69999694824219 " stroke="none" fill="#70AECC" fill-rule="evenodd" stroke-width="0" fill-opacity="1" />
  <text x="7.756194114685059" y="36.154998779296875" dx="0" dy="0" font-family="Segoe UI" font-size="8.249999754130847pt" fill="#000000" style="text-anchor:start" transform="matrix(0.750000 0.000000 0.000000 0.750000 15 15)">USA Major Rivers</text>
  <path d="M89.39998626708984,38.69999313354492 C89.39998626708984,51.78913879394531 72.74497985839844,62.399993896484375 52.20001220703125,62.39999771118164 C31.655027389526367,62.400001525878906 15.000014305114746,51.78915786743164 14.99999713897705,38.70001220703125 L14.999994277954102,38.700016021728516 C14.999977111816406,25.610868453979492 31.65497398376465,15.000008583068848 52.1999626159668,15 C72.74494934082031,14.99998950958252 89.39996337890625,25.61083221435547 89.39998626708984,38.69999694824219 C89.39998626708984,38.69999694824219 89.39998626708984,38.69999694824219 89.39998626708984,38.69999694824219 " stroke="none" fill="none" stroke-width="0.75" stroke-opacity="0" />
  <path d="M89.39998626708984,101.09999084472656 C89.39998626708984,114.18914031982422 72.74497985839844,124.79999542236328 52.20001220703125,124.79999542236328 C31.655027389526367,124.80000305175781 15.000014305114746,114.18915557861328 14.99999713897705,101.10001373291016 L14.999994277954102,101.10001373291016 C14.999977111816406,88.0108642578125 31.65497398376465,77.40000915527344 52.1999626159668,77.4000015258789 C72.74494934082031,77.39998626708984 89.39996337890625,88.01083374023438 89.39998626708984,101.0999984741211 C89.39998626708984,101.0999984741211 89.39998626708984,101.0999984741211 89.39998626708984,101.0999984741211 " stroke="none" fill="#70AECC" fill-rule="evenodd" stroke-width="0" fill-opacity="1" />
  <text x="4.862860679626465" y="36.154998779296875" dx="0" dy="0" font-family="Segoe UI" font-size="8.249999754130847pt" fill="#000000" style="text-anchor:start" transform="matrix(0.750000 0.000000 0.000000 0.750000 15 77.4000015258789)">VA_State_Genera</text>
  <text x="86.27285766601562" y="36.154998779296875" dx="0" dy="0" font-family="Segoe UI" font-size="8.249999754130847pt" fill="#000000" style="text-anchor:start" transform="matrix(0.750000 0.000000 0.000000 0.750000 15 77.4000015258789)"> ...</text>
  <path d="M89.39998626708984,101.09999084472656 C89.39998626708984,114.18914031982422 72.74497985839844,124.79999542236328 52.20001220703125,124.79999542236328 C31.655027389526367,124.80000305175781 15.000014305114746,114.18915557861328 14.99999713897705,101.10001373291016 L14.999994277954102,101.10001373291016 C14.999977111816406,88.0108642578125 31.65497398376465,77.40000915527344 52.1999626159668,77.4000015258789 C72.74494934082031,77.39998626708984 89.39996337890625,88.01083374023438 89.39998626708984,101.0999984741211 C89.39998626708984,101.0999984741211 89.39998626708984,101.0999984741211 89.39998626708984,101.0999984741211 " stroke="none" fill="none" stroke-width="0.75" stroke-opacity="0" />
  <path d="M291.70391845703125,15 L349.0960388183594,15 L349.09600830078125,15 C353.7926025390625,14.999992370605469 357.5999450683594,18.807327270507812 357.5999450683594,23.50393295288086 C357.5999450683594,23.503934860229492 357.5999450683594,23.503936767578125 357.5999450683594,23.503938674926758 L357.5999755859375,23.503936767578125 L357.5999755859375,53.89606475830078 L357.5999450683594,53.89605712890625 C357.5999450683594,58.5926513671875 353.7926330566406,62.399993896484375 349.0960388183594,62.39999771118164 L349.0960388183594,62.39999771118164 L291.70391845703125,62.39999771118164 L291.70391845703125,62.39999771118164 C287.00732421875,62.39999771118164 283.1999816894531,58.59265899658203 283.1999816894531,53.89606475830078 L283.1999816894531,23.503936767578125 L283.199951171875,23.50394058227539 C283.199951171875,18.80734634399414 287.0072937011719,15.00000286102295 291.7038879394531,14.999999046325684 " stroke="none" fill="#F2E279" fill-rule="evenodd" stroke-width="0" fill-opacity="1" />
  <text x="35.09952926635742" y="36.154998779296875" dx="0" dy="0" font-family="Segoe UI" font-size="8.249999754130847pt" fill="#000000" style="text-anchor:start" transform="matrix(0.750000 0.000000 0.000000 0.750000 283.1999816894531 15)">Buffer</text>
  <path d="M291.70391845703125,15 L349.0960388183594,15 L349.09600830078125,15 C353.7926025390625,14.999992370605469 357.5999450683594,18.807327270507812 357.5999450683594,23.50393295288086 C357.5999450683594,23.503934860229492 357.5999450683594,23.503936767578125 357.5999450683594,23.503938674926758 L357.5999755859375,23.503936767578125 L357.5999755859375,53.89606475830078 L357.5999450683594,53.89605712890625 C357.5999450683594,58.5926513671875 353.7926330566406,62.399993896484375 349.0960388183594,62.39999771118164 L349.0960388183594,62.39999771118164 L291.70391845703125,62.39999771118164 L291.70391845703125,62.39999771118164 C287.00732421875,62.39999771118164 283.1999816894531,58.59265899658203 283.1999816894531,53.89606475830078 L283.1999816894531,23.503936767578125 L283.199951171875,23.50394058227539 C283.199951171875,18.80734634399414 287.0072937011719,15.00000286102295 291.7038879394531,14.999999046325684 " stroke="none" fill="none" stroke-width="0.75" stroke-opacity="0" />
  <path d="M446.99993896484375,38.69999313354492 C446.99993896484375,51.78913879394531 430.3449401855469,62.399993896484375 409.79998779296875,62.39999771118164 C389.2549743652344,62.400001525878906 372.5999755859375,51.78915786743164 372.5999450683594,38.70001220703125 L372.5999450683594,38.700016021728516 C372.5999450683594,25.610868453979492 389.25494384765625,15.000008583068848 409.7999267578125,15 C430.34490966796875,14.99998950958252 446.99993896484375,25.61083221435547 446.99993896484375,38.69999694824219 C446.99993896484375,38.69999694824219 446.99993896484375,38.69999694824219 446.99993896484375,38.69999694824219 " stroke="none" fill="#83CC7C" fill-rule="evenodd" stroke-width="0" fill-opacity="1" />
  <text x="20.922861099243164" y="36.154998779296875" dx="0" dy="0" font-family="Segoe UI" font-size="8.249999754130847pt" fill="#000000" style="text-anchor:start" transform="matrix(0.750000 0.000000 0.000000 0.750000 372.5999755859375 15)">Flood Areas</text>
  <path d="M446.99993896484375,38.69999313354492 C446.99993896484375,51.78913879394531 430.3449401855469,62.399993896484375 409.79998779296875,62.39999771118164 C389.2549743652344,62.400001525878906 372.5999755859375,51.78915786743164 372.5999450683594,38.70001220703125 L372.5999450683594,38.700016021728516 C372.5999450683594,25.610868453979492 389.25494384765625,15.000008583068848 409.7999267578125,15 C430.34490966796875,14.99998950958252 446.99993896484375,25.61083221435547 446.99993896484375,38.69999694824219 C446.99993896484375,38.69999694824219 446.99993896484375,38.69999694824219 446.99993896484375,38.69999694824219 " stroke="none" fill="none" stroke-width="0.75" stroke-opacity="0" />
</svg>